<mxfile host="Electron" agent="Mozilla/5.0 (Windows NT 10.0; Win64; x64) AppleWebKit/537.36 (KHTML, like Gecko) draw.io/26.0.16 Chrome/132.0.6834.196 Electron/34.2.0 Safari/537.36" version="26.0.16">
  <diagram name="PÃ¡gina-1" id="fdRy8exkDGa6AhzQUCQz">
    <mxGraphModel dx="880" dy="451" grid="1" gridSize="10" guides="1" tooltips="1" connect="1" arrows="1" fold="1" page="1" pageScale="1" pageWidth="827" pageHeight="1169" math="0" shadow="0">
      <root>
        <mxCell id="0" />
        <mxCell id="1" parent="0" />
        <mxCell id="ilwOlaDzgmUfq5cDJSeV-15" style="edgeStyle=orthogonalEdgeStyle;rounded=0;orthogonalLoop=1;jettySize=auto;html=1;" edge="1" parent="1" source="ilwOlaDzgmUfq5cDJSeV-1" target="ilwOlaDzgmUfq5cDJSeV-2">
          <mxGeometry relative="1" as="geometry" />
        </mxCell>
        <mxCell id="ilwOlaDzgmUfq5cDJSeV-16" style="edgeStyle=orthogonalEdgeStyle;rounded=0;orthogonalLoop=1;jettySize=auto;html=1;entryX=1;entryY=0.5;entryDx=0;entryDy=0;" edge="1" parent="1" source="ilwOlaDzgmUfq5cDJSeV-1" target="ilwOlaDzgmUfq5cDJSeV-3">
          <mxGeometry relative="1" as="geometry" />
        </mxCell>
        <mxCell id="ilwOlaDzgmUfq5cDJSeV-17" style="edgeStyle=orthogonalEdgeStyle;rounded=0;orthogonalLoop=1;jettySize=auto;html=1;entryX=1;entryY=0.5;entryDx=0;entryDy=0;" edge="1" parent="1" source="ilwOlaDzgmUfq5cDJSeV-1" target="ilwOlaDzgmUfq5cDJSeV-4">
          <mxGeometry relative="1" as="geometry" />
        </mxCell>
        <mxCell id="ilwOlaDzgmUfq5cDJSeV-18" style="edgeStyle=orthogonalEdgeStyle;rounded=0;orthogonalLoop=1;jettySize=auto;html=1;entryX=1;entryY=0.5;entryDx=0;entryDy=0;" edge="1" parent="1" source="ilwOlaDzgmUfq5cDJSeV-1" target="ilwOlaDzgmUfq5cDJSeV-6">
          <mxGeometry relative="1" as="geometry" />
        </mxCell>
        <mxCell id="ilwOlaDzgmUfq5cDJSeV-19" style="edgeStyle=orthogonalEdgeStyle;rounded=0;orthogonalLoop=1;jettySize=auto;html=1;entryX=1;entryY=1;entryDx=0;entryDy=0;" edge="1" parent="1" source="ilwOlaDzgmUfq5cDJSeV-1" target="ilwOlaDzgmUfq5cDJSeV-5">
          <mxGeometry relative="1" as="geometry">
            <Array as="points">
              <mxPoint x="400" y="325" />
              <mxPoint x="400" y="205" />
            </Array>
          </mxGeometry>
        </mxCell>
        <mxCell id="ilwOlaDzgmUfq5cDJSeV-20" style="edgeStyle=orthogonalEdgeStyle;rounded=0;orthogonalLoop=1;jettySize=auto;html=1;entryX=0.5;entryY=1;entryDx=0;entryDy=0;" edge="1" parent="1" source="ilwOlaDzgmUfq5cDJSeV-1" target="ilwOlaDzgmUfq5cDJSeV-7">
          <mxGeometry relative="1" as="geometry" />
        </mxCell>
        <mxCell id="ilwOlaDzgmUfq5cDJSeV-21" style="edgeStyle=orthogonalEdgeStyle;rounded=0;orthogonalLoop=1;jettySize=auto;html=1;" edge="1" parent="1" source="ilwOlaDzgmUfq5cDJSeV-1" target="ilwOlaDzgmUfq5cDJSeV-8">
          <mxGeometry relative="1" as="geometry" />
        </mxCell>
        <mxCell id="ilwOlaDzgmUfq5cDJSeV-22" style="edgeStyle=orthogonalEdgeStyle;rounded=0;orthogonalLoop=1;jettySize=auto;html=1;entryX=0.5;entryY=1;entryDx=0;entryDy=0;" edge="1" parent="1" source="ilwOlaDzgmUfq5cDJSeV-1" target="ilwOlaDzgmUfq5cDJSeV-9">
          <mxGeometry relative="1" as="geometry" />
        </mxCell>
        <mxCell id="ilwOlaDzgmUfq5cDJSeV-66" style="edgeStyle=orthogonalEdgeStyle;rounded=0;orthogonalLoop=1;jettySize=auto;html=1;" edge="1" parent="1" source="ilwOlaDzgmUfq5cDJSeV-1" target="ilwOlaDzgmUfq5cDJSeV-13">
          <mxGeometry relative="1" as="geometry">
            <Array as="points">
              <mxPoint x="505" y="290" />
              <mxPoint x="585" y="290" />
            </Array>
          </mxGeometry>
        </mxCell>
        <mxCell id="ilwOlaDzgmUfq5cDJSeV-1" value="USUARIO" style="rounded=0;whiteSpace=wrap;html=1;" vertex="1" parent="1">
          <mxGeometry x="470" y="310" width="70" height="30" as="geometry" />
        </mxCell>
        <mxCell id="ilwOlaDzgmUfq5cDJSeV-2" value="id_usuario" style="ellipse;whiteSpace=wrap;html=1;" vertex="1" parent="1">
          <mxGeometry x="240" y="330" width="80" height="30" as="geometry" />
        </mxCell>
        <mxCell id="ilwOlaDzgmUfq5cDJSeV-3" value="id_nacional" style="ellipse;whiteSpace=wrap;html=1;" vertex="1" parent="1">
          <mxGeometry x="245" y="290" width="70" height="30" as="geometry" />
        </mxCell>
        <mxCell id="ilwOlaDzgmUfq5cDJSeV-4" value="nombre" style="ellipse;whiteSpace=wrap;html=1;" vertex="1" parent="1">
          <mxGeometry x="270" y="250" width="50" height="30" as="geometry" />
        </mxCell>
        <mxCell id="ilwOlaDzgmUfq5cDJSeV-5" value="correo" style="ellipse;whiteSpace=wrap;html=1;" vertex="1" parent="1">
          <mxGeometry x="320" y="180" width="50" height="30" as="geometry" />
        </mxCell>
        <mxCell id="ilwOlaDzgmUfq5cDJSeV-6" value="apellido" style="ellipse;whiteSpace=wrap;html=1;" vertex="1" parent="1">
          <mxGeometry x="290" y="220" width="60" height="30" as="geometry" />
        </mxCell>
        <mxCell id="ilwOlaDzgmUfq5cDJSeV-7" value="telefono" style="ellipse;whiteSpace=wrap;html=1;" vertex="1" parent="1">
          <mxGeometry x="380" y="170" width="50" height="30" as="geometry" />
        </mxCell>
        <mxCell id="ilwOlaDzgmUfq5cDJSeV-8" value="activo" style="ellipse;whiteSpace=wrap;html=1;" vertex="1" parent="1">
          <mxGeometry x="430" y="170" width="50" height="30" as="geometry" />
        </mxCell>
        <mxCell id="ilwOlaDzgmUfq5cDJSeV-9" value="creado" style="ellipse;whiteSpace=wrap;html=1;" vertex="1" parent="1">
          <mxGeometry x="490" y="160" width="50" height="30" as="geometry" />
        </mxCell>
        <mxCell id="ilwOlaDzgmUfq5cDJSeV-11" value="DIRECCION" style="rounded=0;whiteSpace=wrap;html=1;" vertex="1" parent="1">
          <mxGeometry x="793" y="400" width="70" height="30" as="geometry" />
        </mxCell>
        <mxCell id="ilwOlaDzgmUfq5cDJSeV-30" style="edgeStyle=orthogonalEdgeStyle;rounded=0;orthogonalLoop=1;jettySize=auto;html=1;" edge="1" parent="1" source="ilwOlaDzgmUfq5cDJSeV-12" target="ilwOlaDzgmUfq5cDJSeV-29">
          <mxGeometry relative="1" as="geometry">
            <Array as="points">
              <mxPoint x="790" y="255" />
            </Array>
          </mxGeometry>
        </mxCell>
        <mxCell id="ilwOlaDzgmUfq5cDJSeV-32" style="edgeStyle=orthogonalEdgeStyle;rounded=0;orthogonalLoop=1;jettySize=auto;html=1;entryX=1;entryY=0.5;entryDx=0;entryDy=0;" edge="1" parent="1" source="ilwOlaDzgmUfq5cDJSeV-12" target="ilwOlaDzgmUfq5cDJSeV-31">
          <mxGeometry relative="1" as="geometry">
            <Array as="points">
              <mxPoint x="790" y="225" />
            </Array>
          </mxGeometry>
        </mxCell>
        <mxCell id="ilwOlaDzgmUfq5cDJSeV-34" style="edgeStyle=orthogonalEdgeStyle;rounded=0;orthogonalLoop=1;jettySize=auto;html=1;entryX=1;entryY=0.5;entryDx=0;entryDy=0;" edge="1" parent="1" source="ilwOlaDzgmUfq5cDJSeV-12" target="ilwOlaDzgmUfq5cDJSeV-33">
          <mxGeometry relative="1" as="geometry" />
        </mxCell>
        <mxCell id="ilwOlaDzgmUfq5cDJSeV-36" style="edgeStyle=orthogonalEdgeStyle;rounded=0;orthogonalLoop=1;jettySize=auto;html=1;" edge="1" parent="1" source="ilwOlaDzgmUfq5cDJSeV-12" target="ilwOlaDzgmUfq5cDJSeV-35">
          <mxGeometry relative="1" as="geometry">
            <Array as="points">
              <mxPoint x="828" y="135" />
            </Array>
          </mxGeometry>
        </mxCell>
        <mxCell id="ilwOlaDzgmUfq5cDJSeV-39" style="edgeStyle=orthogonalEdgeStyle;rounded=0;orthogonalLoop=1;jettySize=auto;html=1;entryX=0;entryY=0.5;entryDx=0;entryDy=0;" edge="1" parent="1" source="ilwOlaDzgmUfq5cDJSeV-12" target="ilwOlaDzgmUfq5cDJSeV-37">
          <mxGeometry relative="1" as="geometry" />
        </mxCell>
        <mxCell id="ilwOlaDzgmUfq5cDJSeV-40" style="edgeStyle=orthogonalEdgeStyle;rounded=0;orthogonalLoop=1;jettySize=auto;html=1;entryX=0;entryY=0.5;entryDx=0;entryDy=0;" edge="1" parent="1" source="ilwOlaDzgmUfq5cDJSeV-12" target="ilwOlaDzgmUfq5cDJSeV-38">
          <mxGeometry relative="1" as="geometry">
            <Array as="points">
              <mxPoint x="850" y="215" />
            </Array>
          </mxGeometry>
        </mxCell>
        <mxCell id="ilwOlaDzgmUfq5cDJSeV-52" style="edgeStyle=orthogonalEdgeStyle;rounded=0;orthogonalLoop=1;jettySize=auto;html=1;entryX=1;entryY=0.5;entryDx=0;entryDy=0;" edge="1" parent="1" source="ilwOlaDzgmUfq5cDJSeV-12" target="ilwOlaDzgmUfq5cDJSeV-51">
          <mxGeometry relative="1" as="geometry">
            <Array as="points">
              <mxPoint x="820" y="185" />
            </Array>
          </mxGeometry>
        </mxCell>
        <mxCell id="ilwOlaDzgmUfq5cDJSeV-12" value="CLIENTE" style="rounded=0;whiteSpace=wrap;html=1;" vertex="1" parent="1">
          <mxGeometry x="780" y="310" width="96" height="30" as="geometry" />
        </mxCell>
        <mxCell id="ilwOlaDzgmUfq5cDJSeV-13" value="modificado" style="ellipse;whiteSpace=wrap;html=1;" vertex="1" parent="1">
          <mxGeometry x="550" y="150" width="70" height="30" as="geometry" />
        </mxCell>
        <mxCell id="ilwOlaDzgmUfq5cDJSeV-27" value="1" style="edgeStyle=orthogonalEdgeStyle;rounded=0;orthogonalLoop=1;jettySize=auto;html=1;" edge="1" parent="1" source="ilwOlaDzgmUfq5cDJSeV-25" target="ilwOlaDzgmUfq5cDJSeV-12">
          <mxGeometry relative="1" as="geometry" />
        </mxCell>
        <mxCell id="ilwOlaDzgmUfq5cDJSeV-28" value="1" style="edgeStyle=orthogonalEdgeStyle;rounded=0;orthogonalLoop=1;jettySize=auto;html=1;" edge="1" parent="1" source="ilwOlaDzgmUfq5cDJSeV-25" target="ilwOlaDzgmUfq5cDJSeV-1">
          <mxGeometry relative="1" as="geometry" />
        </mxCell>
        <mxCell id="ilwOlaDzgmUfq5cDJSeV-25" value="Es un..." style="rhombus;whiteSpace=wrap;html=1;rounded=0;" vertex="1" parent="1">
          <mxGeometry x="651" y="295" width="49" height="60" as="geometry" />
        </mxCell>
        <mxCell id="ilwOlaDzgmUfq5cDJSeV-29" value="id_cliente" style="ellipse;whiteSpace=wrap;html=1;" vertex="1" parent="1">
          <mxGeometry x="650" y="250" width="70" height="30" as="geometry" />
        </mxCell>
        <mxCell id="ilwOlaDzgmUfq5cDJSeV-31" value="id_usuario" style="ellipse;whiteSpace=wrap;html=1;" vertex="1" parent="1">
          <mxGeometry x="670" y="210" width="70" height="30" as="geometry" />
        </mxCell>
        <mxCell id="ilwOlaDzgmUfq5cDJSeV-33" value="email_confirmado" style="ellipse;whiteSpace=wrap;html=1;" vertex="1" parent="1">
          <mxGeometry x="670" y="140" width="110" height="30" as="geometry" />
        </mxCell>
        <mxCell id="ilwOlaDzgmUfq5cDJSeV-35" value="password" style="ellipse;whiteSpace=wrap;html=1;" vertex="1" parent="1">
          <mxGeometry x="840" y="120" width="70" height="30" as="geometry" />
        </mxCell>
        <mxCell id="ilwOlaDzgmUfq5cDJSeV-37" value="creado" style="ellipse;whiteSpace=wrap;html=1;" vertex="1" parent="1">
          <mxGeometry x="870" y="170" width="50" height="30" as="geometry" />
        </mxCell>
        <mxCell id="ilwOlaDzgmUfq5cDJSeV-38" value="modificado" style="ellipse;whiteSpace=wrap;html=1;" vertex="1" parent="1">
          <mxGeometry x="930" y="200" width="70" height="30" as="geometry" />
        </mxCell>
        <mxCell id="ilwOlaDzgmUfq5cDJSeV-57" style="edgeStyle=orthogonalEdgeStyle;rounded=0;orthogonalLoop=1;jettySize=auto;html=1;entryX=0.5;entryY=1;entryDx=0;entryDy=0;" edge="1" parent="1" source="ilwOlaDzgmUfq5cDJSeV-41" target="ilwOlaDzgmUfq5cDJSeV-50">
          <mxGeometry relative="1" as="geometry" />
        </mxCell>
        <mxCell id="ilwOlaDzgmUfq5cDJSeV-58" style="edgeStyle=orthogonalEdgeStyle;rounded=0;orthogonalLoop=1;jettySize=auto;html=1;entryX=1;entryY=1;entryDx=0;entryDy=0;" edge="1" parent="1" source="ilwOlaDzgmUfq5cDJSeV-41" target="ilwOlaDzgmUfq5cDJSeV-49">
          <mxGeometry relative="1" as="geometry" />
        </mxCell>
        <mxCell id="ilwOlaDzgmUfq5cDJSeV-59" style="edgeStyle=orthogonalEdgeStyle;rounded=0;orthogonalLoop=1;jettySize=auto;html=1;entryX=1;entryY=0.5;entryDx=0;entryDy=0;" edge="1" parent="1" source="ilwOlaDzgmUfq5cDJSeV-41" target="ilwOlaDzgmUfq5cDJSeV-56">
          <mxGeometry relative="1" as="geometry" />
        </mxCell>
        <mxCell id="ilwOlaDzgmUfq5cDJSeV-60" style="edgeStyle=orthogonalEdgeStyle;rounded=0;orthogonalLoop=1;jettySize=auto;html=1;entryX=1;entryY=0.5;entryDx=0;entryDy=0;" edge="1" parent="1" source="ilwOlaDzgmUfq5cDJSeV-41" target="ilwOlaDzgmUfq5cDJSeV-55">
          <mxGeometry relative="1" as="geometry" />
        </mxCell>
        <mxCell id="ilwOlaDzgmUfq5cDJSeV-62" style="edgeStyle=orthogonalEdgeStyle;rounded=0;orthogonalLoop=1;jettySize=auto;html=1;entryX=1;entryY=0.5;entryDx=0;entryDy=0;" edge="1" parent="1" source="ilwOlaDzgmUfq5cDJSeV-41" target="ilwOlaDzgmUfq5cDJSeV-53">
          <mxGeometry relative="1" as="geometry" />
        </mxCell>
        <mxCell id="ilwOlaDzgmUfq5cDJSeV-64" style="edgeStyle=orthogonalEdgeStyle;rounded=0;orthogonalLoop=1;jettySize=auto;html=1;entryX=1;entryY=0.5;entryDx=0;entryDy=0;" edge="1" parent="1" source="ilwOlaDzgmUfq5cDJSeV-41" target="ilwOlaDzgmUfq5cDJSeV-46">
          <mxGeometry relative="1" as="geometry" />
        </mxCell>
        <mxCell id="ilwOlaDzgmUfq5cDJSeV-65" style="edgeStyle=orthogonalEdgeStyle;rounded=0;orthogonalLoop=1;jettySize=auto;html=1;entryX=1;entryY=0.5;entryDx=0;entryDy=0;" edge="1" parent="1" source="ilwOlaDzgmUfq5cDJSeV-41" target="ilwOlaDzgmUfq5cDJSeV-45">
          <mxGeometry relative="1" as="geometry" />
        </mxCell>
        <mxCell id="ilwOlaDzgmUfq5cDJSeV-41" value="EMPLEADO" style="rounded=0;whiteSpace=wrap;html=1;" vertex="1" parent="1">
          <mxGeometry x="454" y="490" width="96" height="30" as="geometry" />
        </mxCell>
        <mxCell id="ilwOlaDzgmUfq5cDJSeV-43" value="1" style="edgeStyle=orthogonalEdgeStyle;rounded=0;orthogonalLoop=1;jettySize=auto;html=1;entryX=0.5;entryY=1;entryDx=0;entryDy=0;" edge="1" parent="1" source="ilwOlaDzgmUfq5cDJSeV-42" target="ilwOlaDzgmUfq5cDJSeV-1">
          <mxGeometry relative="1" as="geometry" />
        </mxCell>
        <mxCell id="ilwOlaDzgmUfq5cDJSeV-44" value="1" style="edgeStyle=orthogonalEdgeStyle;rounded=0;orthogonalLoop=1;jettySize=auto;html=1;" edge="1" parent="1" source="ilwOlaDzgmUfq5cDJSeV-42" target="ilwOlaDzgmUfq5cDJSeV-41">
          <mxGeometry relative="1" as="geometry" />
        </mxCell>
        <mxCell id="ilwOlaDzgmUfq5cDJSeV-42" value="Es un..." style="rhombus;whiteSpace=wrap;html=1;rounded=0;" vertex="1" parent="1">
          <mxGeometry x="477.5" y="380" width="49" height="60" as="geometry" />
        </mxCell>
        <mxCell id="ilwOlaDzgmUfq5cDJSeV-45" value="id_empleado" style="ellipse;whiteSpace=wrap;html=1;" vertex="1" parent="1">
          <mxGeometry x="300" y="560" width="90" height="30" as="geometry" />
        </mxCell>
        <mxCell id="ilwOlaDzgmUfq5cDJSeV-46" value="id_usuario" style="ellipse;whiteSpace=wrap;html=1;" vertex="1" parent="1">
          <mxGeometry x="285" y="530" width="70" height="30" as="geometry" />
        </mxCell>
        <mxCell id="ilwOlaDzgmUfq5cDJSeV-49" value="creado" style="ellipse;whiteSpace=wrap;html=1;" vertex="1" parent="1">
          <mxGeometry x="330" y="380" width="50" height="30" as="geometry" />
        </mxCell>
        <mxCell id="ilwOlaDzgmUfq5cDJSeV-50" value="modificado" style="ellipse;whiteSpace=wrap;html=1;" vertex="1" parent="1">
          <mxGeometry x="380" y="370" width="70" height="30" as="geometry" />
        </mxCell>
        <mxCell id="ilwOlaDzgmUfq5cDJSeV-51" value="id_nacional" style="ellipse;whiteSpace=wrap;html=1;" vertex="1" parent="1">
          <mxGeometry x="680" y="170" width="70" height="30" as="geometry" />
        </mxCell>
        <mxCell id="ilwOlaDzgmUfq5cDJSeV-53" value="id_nacional" style="ellipse;whiteSpace=wrap;html=1;" vertex="1" parent="1">
          <mxGeometry x="270" y="500" width="70" height="30" as="geometry" />
        </mxCell>
        <mxCell id="ilwOlaDzgmUfq5cDJSeV-54" value="posicion" style="ellipse;whiteSpace=wrap;html=1;" vertex="1" parent="1">
          <mxGeometry x="280" y="470" width="50" height="30" as="geometry" />
        </mxCell>
        <mxCell id="ilwOlaDzgmUfq5cDJSeV-55" value="id_departamento" style="ellipse;whiteSpace=wrap;html=1;" vertex="1" parent="1">
          <mxGeometry x="260" y="440" width="100" height="30" as="geometry" />
        </mxCell>
        <mxCell id="ilwOlaDzgmUfq5cDJSeV-56" value="id_sede" style="ellipse;whiteSpace=wrap;html=1;" vertex="1" parent="1">
          <mxGeometry x="270" y="410" width="70" height="30" as="geometry" />
        </mxCell>
        <mxCell id="ilwOlaDzgmUfq5cDJSeV-61" style="edgeStyle=orthogonalEdgeStyle;rounded=0;orthogonalLoop=1;jettySize=auto;html=1;entryX=0.921;entryY=0.44;entryDx=0;entryDy=0;entryPerimeter=0;" edge="1" parent="1" source="ilwOlaDzgmUfq5cDJSeV-41" target="ilwOlaDzgmUfq5cDJSeV-54">
          <mxGeometry relative="1" as="geometry" />
        </mxCell>
      </root>
    </mxGraphModel>
  </diagram>
</mxfile>
